<?xml version="1.0" encoding="UTF-8"?>
<svg version="1.1" xmlns="http://www.w3.org/2000/svg" viewBox="185 120 140 170" aria-hidden="true">
  <path d="M0 0 C0.66 0 1.32 0 2 0 C2.3403125 0.7307373 2.680625 1.46147461 3.03125 2.21435547 C10.0117458 17.19875088 17.01513685 32.17193008 24.0625 47.125 C29.42668678 58.50722201 34.76081126 69.9022878 40.03588867 81.32617188 C43.11405921 87.98074171 46.23805049 94.61073336 49.3984375 101.2265625 C50.52163125 103.58526331 51.64429277 105.94421681 52.7668457 108.30322266 C53.50239262 109.84432229 54.24081379 111.38405354 54.98217773 112.92236328 C56.01332989 115.06217325 57.03490201 117.20631774 58.0546875 119.3515625 C58.52544205 120.31819321 58.52544205 120.31819321 59.00570679 121.30435181 C59.73129838 122.84231471 60.37435607 124.41874015 61 126 C60.67 126.66 60.34 127.32 60 128 C30.85399199 114.48830085 30.85399199 114.48830085 24.27783203 97.18066406 C22.70190111 93.25799917 20.91232693 89.46148438 19.08984375 85.6484375 C18.55735771 84.53396996 18.55735771 84.53396996 18.01411438 83.39698792 C17.28670357 81.87563725 16.55896401 80.35444372 15.8309021 78.83340454 C14.10808955 75.21388818 12.42372986 71.57662151 10.734375 67.94140625 C7.6087368 61.23209693 4.35851935 54.59641582 1 48 C-1.05194073 52.22575954 -3.10310604 56.45189444 -5.15368652 60.67831421 C-5.88338516 62.18201257 -6.61328361 63.68561399 -7.34338379 65.18911743 C-11.1183614 72.9632945 -14.88748077 80.7396615 -18.59375 88.546875 C-19.3995752 90.24082397 -19.3995752 90.24082397 -20.22167969 91.96899414 C-21.21586635 94.06266231 -22.20630584 96.15811535 -23.19238281 98.25561523 C-23.63936523 99.19606689 -24.08634766 100.13651855 -24.546875 101.10546875 C-25.11680176 102.31432739 -25.11680176 102.31432739 -25.69824219 103.54760742 C-28.79499479 109.3816059 -31.52072247 112.76192519 -37.296875 116.0859375 C-37.89050842 116.43258453 -38.48414185 116.77923157 -39.09576416 117.13638306 C-40.97335215 118.22888613 -42.86116987 119.30207505 -44.75 120.375 C-46.03327873 121.11723468 -47.31583901 121.86071298 -48.59765625 122.60546875 C-51.723597 124.41809348 -54.85899493 126.21357718 -58 128 C-58.33 127.34 -58.66 126.68 -59 126 C-58.03466797 123.55517578 -58.03466797 123.55517578 -56.4921875 120.4453125 C-55.9245166 119.28813721 -55.3568457 118.13096191 -54.77197266 116.9387207 C-54.46350403 116.31873199 -54.1550354 115.69874329 -53.83721924 115.05996704 C-52.19252308 111.75257852 -50.57468369 108.43205745 -48.953125 105.11328125 C-48.45233932 104.09094643 -48.45233932 104.09094643 -47.94143677 103.04795837 C-44.74527641 96.5112039 -41.6714274 89.92028446 -38.625 83.3125 C-33.79467694 72.85349024 -28.91356214 62.42009249 -24 52 C-18.8700441 41.11610185 -13.75860806 30.22395383 -8.6875 19.3125 C-8.15447266 18.16716797 -7.62144531 17.02183594 -7.07226562 15.84179688 C-4.6362654 10.59185115 -2.23744802 5.33780262 0 0 Z " fill="#FE3131" transform="translate(249,133)"/>
  <path d="M0 0 C0.66 0 1.32 0 2 0 C2.3403125 0.7307373 2.680625 1.46147461 3.03125 2.21435547 C4.68682146 5.76822014 6.34314902 9.32173172 8 12.875 C8.30735077 13.53416412 8.61470154 14.19332825 8.93136597 14.87246704 C12.71270085 22.98002618 16.50476166 31.0824233 20.31640625 39.17578125 C20.67189545 39.93060791 21.02738464 40.68543457 21.39364624 41.46313477 C23.12112 45.13018926 24.84990048 48.79662286 26.58007812 52.46240234 C27.82707597 55.1050778 29.07005223 57.74957592 30.30908203 60.39599609 C31.3998923 62.72093707 32.49921492 65.04191229 33.60888672 67.35791016 C34.31102295 68.84556885 34.31102295 68.84556885 35.02734375 70.36328125 C35.435896 71.21833252 35.84444824 72.07338379 36.26538086 72.9543457 C36.50780518 73.62941162 36.75022949 74.30447754 37 75 C36.67 75.66 36.34 76.32 36 77 C31.78099361 75.04597395 27.563515 73.08870092 23.34741211 71.12841797 C21.91325629 70.46216043 20.47868877 69.79678836 19.04370117 69.13232422 C16.97986433 68.17648701 14.91753432 67.21746386 12.85546875 66.2578125 C12.21473923 65.96190216 11.5740097 65.66599182 10.91386414 65.3611145 C8.11377454 64.05461738 5.57843557 62.71895705 3 61 C-2.03478049 61.2740998 -6.00321349 63.30031987 -10.375 65.625 C-18.43187221 69.79025092 -26.65699906 73.44978683 -35 77 C-33.5495671 72.31398602 -31.66046748 67.9374315 -29.54296875 63.5234375 C-29.20337631 62.80811356 -28.86378387 62.09278961 -28.51390076 61.35578918 C-27.78565344 59.82254617 -27.05589846 58.2900185 -26.32476807 56.75814819 C-24.39821168 52.72104427 -22.48315604 48.6784853 -20.56640625 44.63671875 C-20.18059387 43.82396988 -19.79478149 43.01122101 -19.39727783 42.17384338 C-15.77013847 34.52854027 -12.18752253 26.8630932 -8.625 19.1875 C-8.09672607 18.0516748 -7.56845215 16.91584961 -7.02416992 15.74560547 C-4.60453228 10.52765272 -2.22459835 5.3042294 0 0 Z " fill="#FE3131" transform="translate(249,192)"/>
</svg>
