<svg version="1.1" id="Layer_1" xmlns="http://www.w3.org/2000/svg" xmlns:xlink="http://www.w3.org/1999/xlink" x="0px" y="0px"
	 width="100%" viewBox="0 0 496 496" enable-background="new 0 0 496 496" xml:space="preserve">
<path fill="#e0110c" opacity="1.000000" stroke="none" 
	d="
M255.295288,140.792786 
	C274.138885,181.025116 292.854401,220.906189 311.521881,260.684906 
	C309.371796,262.212463 308.240448,261.252045 307.148346,260.643005 
	C299.584656,256.424835 292.088776,252.082764 284.473755,247.960358 
	C282.067596,246.657776 280.895691,244.653671 279.808685,242.361664 
	C271.317261,224.456741 262.795624,206.566101 254.243988,188.689850 
	C253.480759,187.094376 253.101166,185.194412 250.992035,183.977417 
	C247.192871,189.876694 244.577682,196.332993 241.544586,202.554520 
	C235.269699,215.425674 229.117798,228.356781 222.909302,241.260345 
	C222.042892,243.061050 221.182449,244.825241 219.324615,245.923691 
	C210.725281,251.007996 202.164734,256.157928 193.569214,261.248718 
	C193.041031,261.561523 192.331467,261.568085 190.106293,262.098602 
	C210.431076,218.732086 230.266357,176.410034 250.227493,133.819443 
	C253.623917,135.366684 253.834229,138.314896 255.295288,140.792786 
z"/>
<path fill="#000000" opacity="1.000000" stroke="none" 
	d="
M302.076599,293.677795 
	C309.908142,294.121674 314.280518,297.270630 315.516663,303.042694 
	C316.631195,308.246979 314.202728,313.787628 309.707306,316.296875 
	C303.033112,320.022339 296.988251,318.516571 289.600586,311.088318 
	C289.113922,313.865601 290.491302,317.423401 285.506592,317.505737 
	C280.922424,317.581451 281.042084,314.626892 280.631042,311.544922 
	C278.346008,312.569641 277.925842,315.639038 274.919678,315.354980 
	C272.230377,315.100891 271.858185,312.528290 269.639923,311.122955 
	C270.331024,317.856384 266.596832,318.259644 261.731171,317.015717 
	C261.129395,316.861877 260.411926,316.737457 259.849854,316.917389 
	C254.796860,318.534973 251.142975,316.755920 248.411316,312.439148 
	C247.896729,311.626007 247.085785,311.000458 246.364380,310.238464 
	C244.740677,311.501923 245.605484,313.124573 245.325195,314.469391 
	C245.081497,315.638763 244.985168,317.199371 243.570175,317.066620 
	C238.243347,316.566956 232.549362,319.736176 227.577148,314.884827 
	C225.426575,312.786530 221.868881,312.385132 219.616974,315.172943 
	C218.108612,317.040222 216.519760,317.566559 214.473297,317.359680 
	C205.598541,316.462585 196.736053,317.752655 187.856003,317.413788 
	C180.691101,317.140350 180.682007,317.378693 175.551636,312.783813 
	C175.594955,317.881592 172.233810,317.663635 168.989746,317.278442 
	C164.894440,316.792175 166.129883,313.362579 166.001297,310.988800 
	C165.767517,306.672668 165.948547,302.334412 165.945831,298.005371 
	C165.944031,295.136139 167.274933,293.743408 170.232040,293.813446 
	C173.721542,293.896088 177.200989,293.697388 180.663895,294.506378 
	C187.606033,296.128174 190.434082,301.957275 186.706024,308.108704 
	C185.119370,310.726746 185.305954,312.265137 188.700760,314.709137 
	C188.700760,309.090393 188.919632,304.245514 188.633682,299.430634 
	C188.391251,295.348389 189.815842,293.574219 193.984558,293.791534 
	C197.632828,293.981720 201.277588,293.767303 204.914597,294.536194 
	C209.391281,295.482513 211.457748,298.140015 210.150421,302.404999 
	C209.207794,305.480286 210.460571,307.024353 212.872208,309.128937 
	C214.656479,305.275055 216.439957,301.744598 217.931793,298.094910 
	C219.046082,295.368958 220.486740,293.715729 223.759933,293.706055 
	C226.927322,293.696686 228.568390,294.943420 229.714996,297.827972 
	C231.532684,302.400726 233.746094,306.816193 236.676483,311.132416 
	C236.676483,307.050293 236.627151,302.967255 236.699554,298.886414 
	C236.730667,297.131958 236.216492,294.927399 238.498718,294.171448 
	C240.787125,293.413452 243.086578,293.536713 244.995056,295.415588 
	C246.856445,297.248138 248.048355,299.803802 250.692886,300.835632 
	C252.111252,299.830750 251.447021,298.363739 251.647064,297.129272 
	C251.805832,296.149567 251.666779,294.823151 252.703049,294.498810 
	C257.164978,293.102417 261.781891,294.668030 266.340637,293.942291 
	C268.668915,293.571655 269.448212,296.050446 270.632416,297.612823 
	C272.199677,299.680573 272.820740,302.488037 275.375244,303.882874 
	C277.482147,302.444824 278.296783,300.184296 279.413818,298.198090 
	C281.102081,295.196106 283.132965,293.051605 286.944916,293.939392 
	C290.643311,294.800659 288.589874,298.142426 289.860016,300.608734 
	C292.981873,296.811249 296.457916,293.656403 302.076599,293.677795 
M299.994995,309.392334 
	C302.350403,311.451172 304.344208,310.580170 305.844574,308.395081 
	C307.184937,306.442932 307.127838,304.274689 305.419037,302.479431 
	C303.976868,300.964325 302.030609,300.770569 300.441559,301.947968 
	C297.928802,303.809814 297.623474,306.271179 299.994995,309.392334 
z"/>
<path fill="#e0110c" opacity="1.000000" stroke="none" 
	d="
M242.018188,210.123444 
	C244.900192,204.185776 247.627899,198.591003 250.355621,192.996246 
	C250.921005,192.987732 251.486404,192.979218 252.051788,192.970703 
	C263.868866,218.159149 275.685944,243.347580 287.411407,268.340820 
	C285.557892,270.099884 284.330566,269.260162 283.195068,268.730225 
	C273.689056,264.293701 264.135651,259.949280 254.753967,255.261978 
	C252.073395,253.922714 250.146240,253.896408 247.447220,255.239517 
	C237.913010,259.983887 228.203613,264.377167 218.539429,268.857819 
	C217.680771,269.255920 216.668488,269.322723 214.120300,269.920319 
	C223.699036,249.393280 232.781479,229.929810 242.018188,210.123444 
z"/>
<path fill="#000000" opacity="1.000000" stroke="none" 
	d="
M350.002533,317.384216 
	C339.329895,317.313019 340.009094,318.599060 340.039703,307.578552 
	C340.045898,305.345337 340.040588,303.112122 338.904419,300.713013 
	C337.036072,305.079834 335.052399,309.402100 333.341461,313.829742 
	C332.267761,316.608215 330.470123,317.465607 327.605347,317.450592 
	C324.800812,317.435883 322.811157,316.811920 321.812134,313.939606 
	C319.597229,307.571472 315.810638,301.787476 314.292236,295.096466 
	C324.213043,290.208099 324.190369,299.577362 327.737061,304.067139 
	C328.333710,303.397430 329.001984,302.992828 329.115448,302.468262 
	C330.940582,294.030334 336.814728,292.895264 344.137756,293.718628 
	C347.915192,294.143311 351.780029,293.854828 355.603455,293.785248 
	C358.403229,293.734314 359.604401,295.081238 359.322449,297.762604 
	C358.994720,300.879181 358.892578,304.077667 358.070709,307.069794 
	C356.990875,311.001190 353.099792,308.372528 350.676849,310.551910 
	C352.754150,310.551910 354.832947,310.601135 356.908386,310.538818 
	C359.248840,310.468536 360.222015,311.593140 360.187164,313.866425 
	C360.153900,316.035248 359.338287,317.358490 356.972565,317.344818 
	C354.811005,317.332336 352.649139,317.369049 350.002533,317.384216 
z"/>
<path fill="#000000" opacity="1.000000" stroke="none" 
	d="
M165.249023,297.290588 
	C165.253418,300.909058 165.450165,304.082153 165.155838,307.209076 
	C164.526123,313.899536 160.201202,317.928711 153.784515,318.138611 
	C147.703644,318.337555 143.687592,314.734436 142.306732,308.168457 
	C141.645355,305.023621 142.013672,301.887268 141.811859,298.753906 
	C141.580505,295.161804 143.043976,293.638489 146.753265,293.758026 
	C150.604538,293.882111 151.017639,296.189606 150.794891,299.111389 
	C150.580811,301.919586 150.099960,304.725189 150.900391,307.511993 
	C151.318146,308.966461 151.751068,310.576477 153.697266,310.437164 
	C155.492218,310.308716 156.284042,308.775024 156.419983,307.315399 
	C156.696060,304.351288 156.620575,301.353546 156.667786,298.369293 
	C156.700104,296.325195 156.623474,294.147125 159.429337,293.950165 
	C161.852066,293.780151 164.644272,293.151154 165.249023,297.290588 
z"/>
<path fill="#000000" opacity="1.000000" stroke="none" 
	d="
M224.470062,354.122864 
	C227.876923,353.389893 230.328323,353.832733 231.362656,357.137115 
	C229.792465,358.643433 229.013947,357.133820 228.010056,356.898041 
	C225.265656,356.253418 223.028839,358.334412 223.551239,361.087860 
	C223.807190,362.437012 224.459915,363.615692 225.908905,364.044922 
	C226.830780,364.317963 227.578720,363.906586 227.987091,363.096191 
	C228.973877,361.138123 225.983139,361.680878 226.133224,360.101196 
	C227.421524,358.243561 229.256699,358.553589 230.913055,359.384827 
	C232.762604,360.312988 232.225174,362.229309 232.189789,363.849518 
	C232.137375,366.250732 230.200745,366.068787 228.627747,366.427704 
	C225.335831,367.178864 222.414032,366.579285 221.213806,363.191620 
	C219.984299,359.721344 219.981110,356.226318 224.470062,354.122864 
z"/>
<path fill="#000000" opacity="1.000000" stroke="none" 
	d="
M307.581238,361.820831 
	C304.972015,360.829193 302.304657,360.267609 302.557404,356.903229 
	C302.727448,354.639709 304.411407,353.871429 306.377472,353.770538 
	C308.859985,353.643158 310.997009,354.168915 311.258331,357.200897 
	C309.749908,358.977325 308.396942,356.587372 306.661682,357.577240 
	C308.823395,358.983093 311.942993,359.627106 311.969666,362.646057 
	C311.996857,365.721191 309.946075,367.086731 307.002319,366.787537 
	C304.230804,366.505798 302.052643,365.431580 302.139526,362.555878 
	C304.339294,360.289581 306.045532,367.037720 307.581238,361.820831 
z"/>
<path fill="#000000" opacity="1.000000" stroke="none" 
	d="
M211.340210,366.459351 
	C205.486572,366.433929 203.476425,364.481201 203.619629,359.656769 
	C203.697433,357.035370 204.814438,355.093048 207.168991,354.161865 
	C209.640656,353.184265 212.106674,353.466919 214.048035,355.541016 
	C215.943542,357.566101 216.177048,359.959778 215.332932,362.506622 
	C214.725479,364.339386 213.552521,365.670044 211.340210,366.459351 
M206.555283,361.096375 
	C207.264145,363.010284 208.459946,364.276947 210.606384,363.342621 
	C212.286911,362.611115 212.824371,361.031769 212.545273,359.260712 
	C212.320221,357.832489 211.447372,356.789062 209.986847,356.736206 
	C207.568329,356.648773 206.481308,358.073212 206.555283,361.096375 
z"/>
<path fill="#000000" opacity="1.000000" stroke="none" 
	d="
M254.894836,357.959198 
	C253.656891,357.860443 252.908783,356.810822 251.298019,357.755554 
	C254.402786,359.078369 257.595337,360.448517 256.103424,364.407776 
	C255.195145,366.818146 252.935074,367.203674 250.689606,366.692017 
	C248.366974,366.162689 246.317947,365.172058 246.970535,362.216156 
	C249.282532,361.121613 250.568558,365.367950 253.048111,362.680359 
	C251.287460,360.283936 245.094696,361.027740 247.632538,355.788727 
	C248.844345,353.287170 251.499146,353.267609 253.761810,354.092590 
	C255.274063,354.643982 257.501709,355.628876 254.894836,357.959198 
z"/>
<path fill="#000000" opacity="1.000000" stroke="none" 
	d="
M296.160339,363.671173 
	C294.382751,367.148254 291.759186,367.511383 288.849121,366.126129 
	C285.285828,364.429901 285.247498,361.089935 285.882935,357.918182 
	C286.426666,355.204132 288.486176,353.734467 291.353912,353.733765 
	C293.886261,353.733124 295.743286,354.560028 296.000732,357.660065 
	C295.146332,357.660065 294.578949,357.834534 294.235779,357.631012 
	C292.376007,356.527924 290.548309,355.730164 289.046265,358.046906 
	C288.024506,359.622864 288.196136,361.318146 289.457855,362.655029 
	C291.245392,364.548950 292.533112,363.259430 294.048157,361.925934 
	C295.731842,360.444122 296.342407,361.580627 296.160339,363.671173 
z"/>
<path fill="#000000" opacity="1.000000" stroke="none" 
	d="
M262.414856,356.060791 
	C263.741455,353.228882 265.894501,352.951172 271.739960,354.940186 
	C266.445404,357.160461 269.264252,362.510803 267.094727,366.237854 
	C262.697327,363.735992 267.076630,358.155060 262.414856,356.060791 
z"/>
<path fill="#000000" opacity="1.000000" stroke="none" 
	d="
M190.811935,365.766327 
	C189.577744,361.708344 189.089508,357.936005 190.942383,353.839447 
	C193.942383,356.082275 192.840347,358.803162 193.003510,361.064850 
	C193.229050,364.190918 196.763336,363.300049 197.954987,365.359589 
	C195.625702,366.992584 193.397400,366.642365 190.811935,365.766327 
z"/>
<path fill="#000000" opacity="1.000000" stroke="none" 
	d="
M277.342896,365.195557 
	C276.789185,361.306152 275.983398,357.728485 277.902435,354.170319 
	C281.190308,358.002258 280.899902,363.786560 277.342896,365.195557 
z"/>
<path fill="#000000" opacity="1.000000" stroke="none" 
	d="
M238.220825,357.382812 
	C238.555649,355.944214 238.392395,354.572845 240.526688,354.444336 
	C241.770325,358.231598 241.704254,361.936920 240.287003,366.673492 
	C237.880112,363.305450 238.454865,360.455322 238.220825,357.382812 
z"/>
</svg>